<svg version="1.1" id="Layer_1" xmlns="http://www.w3.org/2000/svg" xmlns:xlink="http://www.w3.org/1999/xlink" x="0px" y="0px"
	 width="100%" viewBox="0 0 1200 1200" enable-background="new 0 0 1200 1200" xml:space="preserve">
<path fill="none" opacity="1.000000" stroke="#000000" stroke-linecap="round" stroke-linejoin="round" stroke-width="12.000000"
	d="
M568.500000,522.500000 
	C567.917542,531.945312 571.204041,540.846680 572.720520,549.963318 
	C574.771301,562.292114 576.578857,574.658203 578.413086,587.012878 
	C580.327942,599.910767 581.504211,612.926208 580.965393,625.998596 
	C580.505188,637.162903 580.587463,648.433533 576.010071,659.004395 
	C572.317444,667.531982 566.295837,669.593323 557.474731,666.063110 
	C540.737549,659.364807 529.575806,646.217773 518.569275,632.942566 
	C513.303650,626.591431 508.137482,620.072449 506.407257,611.518738 
	C505.384338,606.461731 505.579193,602.304199 510.500000,599.500000 
"/>
<path fill="none" opacity="1.000000" stroke="#000000" stroke-linecap="round" stroke-linejoin="round" stroke-width="14.000000"
	d="
M685.750000,544.500000 
	C685.960571,553.494385 683.903442,562.100952 680.938171,570.478088 
	C679.331909,575.015808 678.646667,579.045654 681.399841,583.561035 
	C684.788330,589.118408 684.885803,595.763611 685.370911,602.010010 
	C686.376038,614.951599 688.583557,627.696533 690.442261,640.508362 
	C691.741638,649.464966 692.500000,658.500000 693.500000,667.500000 
"/>
<path fill="none" opacity="1.000000" stroke="#000000" stroke-linecap="round" stroke-linejoin="round" stroke-width="13.000000"
	d="
M599.750000,544.500000 
	C600.176636,549.285522 604.983276,551.333679 606.620605,555.452026 
	C607.221375,556.963135 608.178345,558.512817 609.064453,559.960571 
	C611.671814,564.220886 612.028503,570.599121 615.322998,573.069214 
	C619.718933,576.365234 624.091492,579.653442 627.974548,583.525513 
	C638.197388,593.719421 653.526428,591.381531 664.900513,585.313538 
	C669.423767,582.900452 673.853760,580.236755 678.500000,578.000000 
"/>
<path fill="none" opacity="1.000000" stroke="#000000" stroke-linecap="round" stroke-linejoin="round" stroke-width="14.000000"
	d="
M614.500000,574.000000 
	C611.783508,578.271484 610.615234,583.058716 610.546387,588.000671 
	C610.235657,610.334412 609.102722,632.655212 609.481201,655.000305 
	C609.537720,658.335754 610.982971,661.757507 609.000000,665.000000 
"/>
</svg>